<?xml version="1.0" encoding="utf-8" ?>
<svg xmlns="http://www.w3.org/2000/svg" xmlns:xlink="http://www.w3.org/1999/xlink" width="390" height="372">
	<path fill="#FEFEFE" transform="scale(6 6)" d="M0 0L64.5625 0C64.9122 0.534221 64.9637 1.01179 64.9836 1.63173C65.4238 15.3601 65.0189 29.5677 65.0156 43.3439L65.011 55.7225C65.0101 57.3413 65.2512 59.5177 64.9306 61.0878C64.8676 61.3963 64.7312 61.734 64.5625 62L0 62L0 0Z"/>
	<path fill="#080708" transform="scale(6 6)" d="M42.486 1.39609L42.7681 1.54788C43.4562 4.0822 43.6898 6.90327 44.0877 9.51122C46.48 8.8766 48.6933 7.9034 51.0013 7.04609C51.5678 6.83567 52.3234 6.49261 52.9112 6.76194C53.4708 8.91589 50.5628 13.608 49.5237 15.6647C52.4638 17.3124 55.5348 18.7146 58.7055 19.8571C55.9993 20.7576 53.2714 21.73 50.7027 22.9723C51.4615 24.496 52.5168 26.654 52.8095 28.319C52.9571 29.1584 52.0847 29.3508 51.7508 29.9883C51.3013 30.8466 51.961 32.1388 51.4327 33.0069C51.2395 33.3244 50.601 33.64 50.325 34.0354C50.6221 34.8255 50.9366 35.6261 51.1643 36.439C52.3292 40.599 49.9593 41.3899 48.0895 44.3757C47.1291 45.9093 46.4645 47.6647 45.5757 49.2473C42.7792 54.2271 37.9354 57.0396 32.5662 58.5541C27.8156 57.4473 23.7148 54.9519 20.4679 51.3214C18.9354 49.3341 18.36 46.8516 16.9074 44.8665C15.7989 43.3515 13.7623 42.9408 13.1353 40.9536C12.0118 37.3927 15.0524 33.4938 13.1176 29.9123C12.476 29.4031 12.1554 29.408 11.3626 29.2905C10.8446 28.1514 12.3421 24.792 12.4712 23.1828C10.5727 22.7925 8.02369 22.3248 6.25481 21.5313C5.79202 21.3237 5.67151 21.2632 5.49049 20.7884C6.17975 19.7984 11.659 17.0231 13.044 16.1045C12.3159 14.2175 11.294 12.1342 11.1342 10.1094C13.5402 10.2153 15.9548 10.1884 18.3628 10.1963C18.2766 7.49437 17.5733 4.58038 17.0267 1.93539C20.4663 3.91773 23.5227 5.88208 26.5398 8.47949C27.5728 6.22418 28.7467 3.95263 29.516 1.59297C32.3001 3.2335 34.1136 5.36735 36.244 7.73681C38.242 5.54609 40.6037 3.68519 42.486 1.39609Z"/>
	<path fill="#FEFEFE" transform="scale(6 6)" d="M17.3845 34.3381C21.7609 33.4836 26.8324 33.9918 31.3097 34.0136C36.7724 34.0401 42.2418 33.9134 47.703 34.0276C48.8385 35.2471 49.7519 36.6857 49.6842 38.4238C49.6344 39.7034 48.8824 41.0309 47.9509 41.8784C47.2814 42.4876 46.4921 42.9755 45.7284 43.4574C44.0051 42.6068 42.6095 41.8059 40.6385 41.8201L40.2599 42.0552C40.4607 42.9526 41.1477 43.5882 41.9222 44.0805C42.9421 44.7289 44.1382 45.2117 45.2331 45.7254C44.7218 46.7502 44.2466 47.8216 43.6838 48.8172C42.7464 47.7523 40.9032 45.6441 39.4477 45.5623C39.3294 45.5557 39.2055 45.5723 39.0908 45.6002C39.0968 46.528 39.7908 47.4553 40.4419 48.0995C41.1899 48.8395 42.074 49.4375 42.8048 50.1918L40.7955 52.728C40.1196 51.6658 39.4358 50.745 38.5793 49.8166C38.0966 49.6655 37.3236 49.3254 36.8305 49.4734L36.7954 49.4838C36.7327 49.5026 36.6738 49.5248 36.6141 49.5519C36.4769 50.0039 36.4619 50.0531 36.6948 50.4913C37.2663 51.5665 38.4536 52.6123 39.2799 53.519C37.1234 54.7653 34.9409 56.0875 32.5857 56.9248C30.2586 56.098 28.1866 54.8892 26.0851 53.6093C27.1837 52.451 28.4245 51.3238 28.7648 49.6972L28.553 49.3846C26.7535 49.5974 25.0782 51.9154 23.274 51.6802C22.8641 51.2759 22.708 50.95 22.5587 50.3967C22.7646 48.9495 27.0845 47.4103 26.459 45.8282C25.7276 45.5971 25.1505 45.6963 24.4805 46.0492C23.3344 46.6529 22.3872 47.5508 21.2861 48.2069C21.2377 47.5125 20.4932 46.1489 20.5621 45.6391C20.6474 45.0084 21.2087 44.3306 21.3082 43.5542C21.3565 43.178 21.2604 43.131 21.0405 42.8458C20.0322 43.2014 19.4429 43.4788 18.4152 42.9914C17.1193 42.3769 16.0503 40.9523 15.2643 39.7818C15.2639 38.6454 15.2206 37.492 15.271 36.3577C15.9495 35.6635 16.6157 34.9333 17.3845 34.3381Z"/>
	<path fill="#242425" transform="scale(6 6)" d="M21.0405 42.8458C21.9137 42.2628 23.4813 41.6287 24.5382 41.6726C24.608 41.7577 24.8203 41.9676 24.8111 42.066C24.595 44.4015 21.8883 45.9621 21.2861 48.2069C21.2377 47.5125 20.4932 46.1489 20.5621 45.6391C20.6474 45.0084 21.2087 44.3306 21.3082 43.5542C21.3565 43.178 21.2604 43.131 21.0405 42.8458Z"/>
	<path fill="#080708" transform="scale(6 6)" d="M38.5468 35.6535C39.5155 35.1142 40.7375 35.4424 41.3056 36.3946C41.8737 37.3468 41.5821 38.5781 40.6474 39.1744C40.0173 39.5763 39.2185 39.6037 38.5624 39.2459C37.9063 38.8881 37.4968 38.2017 37.4936 37.4543C37.4903 36.707 37.8938 36.0171 38.5468 35.6535Z"/>
	<path fill="#242425" transform="scale(6 6)" d="M25.4314 35.3452C26.1526 35.2098 26.8909 35.4726 27.3641 36.0334C27.8374 36.5942 27.9725 37.3661 27.7177 38.0543C27.463 38.7424 26.8578 39.2404 26.1335 39.3578C25.0328 39.5363 23.9932 38.7966 23.801 37.6982C23.6089 36.5998 24.3355 35.5511 25.4314 35.3452Z"/>
	<path fill="#FEFEFE" transform="scale(6 6)" d="M31.3792 5.78461C32.7668 6.11105 34.9625 10.3407 35.7981 11.62C37.9916 9.89216 39.8171 7.77246 41.8542 5.8682C42.032 7.64976 41.9119 10.8895 43.3555 12.0834C45.0618 12.3671 48.403 10.8273 50.1421 10.2679C49.4002 12.489 48.2101 14.5359 47.052 16.5583C48.9784 17.7748 51.1605 18.7392 53.1891 19.7854C52.2166 20.2857 49.9353 20.9558 49.3646 21.8465C48.7546 22.7986 49.2982 24.3234 49.522 25.3731C47.8072 24.6892 46.1939 23.7481 44.4767 23.0697C41.8245 22.022 38.6804 22.3458 35.875 22.3714C31.1913 22.3767 24.8745 21.8243 20.3738 22.5821C18.5106 22.8958 16.5786 25.2859 14.6766 25.0007C14.3719 24.1527 14.9825 23.119 15.0999 22.2453C14.522 21.4673 13.6298 21.4306 12.8805 20.8361L12.9224 20.3684C14.0737 19.2492 15.3858 18.6524 16.8045 17.9464C16.0661 16.6501 14.5111 14.5847 14.7383 13.0385C15.9838 12.1247 19.9305 13.2265 21.5527 13.4224C21.4959 12.5998 21.3474 11.7817 21.2401 10.9643C21.1174 10.0293 20.8199 8.51049 21.4359 7.70807C22.3376 7.75894 26.845 10.7613 28.1232 11.3831C29.3083 9.54429 30.4011 7.74642 31.3792 5.78461Z"/>
	<path fill="#585657" transform="scale(6 6)" d="M24.3625 23.8504C27.35 23.705 39.3706 23.1352 41.3805 24.298C42.046 25.0116 42.2574 25.9052 42.3796 26.8511C42.5478 28.1529 42.6281 30.8256 41.7866 31.8977C41.5137 32.2454 40.9875 32.192 40.5625 32.2392C37.1273 32.2729 26.4508 32.9497 23.7579 31.9302C23.4234 31.6645 23.1843 31.3859 23.0258 30.9899C22.4538 29.5603 22.3665 26.778 23.0044 25.3337C23.293 24.6804 23.6769 24.1182 24.3625 23.8504Z"/>
</svg>
